<svg xmlns="http://www.w3.org/2000/svg" width="750" height="360" viewBox="0 0 750 360" style="background-color: #0f172a; font-family: ui-sans-serif, system-ui, sans-serif;">
  <text x="375.0" y="30" text-anchor="middle" fill="#f8fafc" font-size="16" font-weight="bold">Redis: In-Memory Read Acceleration vs. Primary Database Queries</text>
  <text x="375.0" y="48" text-anchor="middle" fill="#94a3b8" font-size="11">Cache-aside pattern evaluation • Sub-millisecond RAM response</text>
  <line x1="260.0" y1="60" x2="260.0" y2="268" stroke="#334155" stroke-dasharray="3,3" />
  <text x="260.0" y="286" fill="#94a3b8" font-size="10" text-anchor="middle">0.0ms</text>
  <line x1="342.0" y1="60" x2="342.0" y2="268" stroke="#334155" stroke-dasharray="3,3" />
  <text x="342.0" y="286" fill="#94a3b8" font-size="10" text-anchor="middle">3.6ms</text>
  <line x1="424.0" y1="60" x2="424.0" y2="268" stroke="#334155" stroke-dasharray="3,3" />
  <text x="424.0" y="286" fill="#94a3b8" font-size="10" text-anchor="middle">7.2ms</text>
  <line x1="506.0" y1="60" x2="506.0" y2="268" stroke="#334155" stroke-dasharray="3,3" />
  <text x="506.0" y="286" fill="#94a3b8" font-size="10" text-anchor="middle">10.8ms</text>
  <line x1="588.0" y1="60" x2="588.0" y2="268" stroke="#334155" stroke-dasharray="3,3" />
  <text x="588.0" y="286" fill="#94a3b8" font-size="10" text-anchor="middle">14.4ms</text>
  <line x1="670.0" y1="60" x2="670.0" y2="268" stroke="#334155" stroke-dasharray="3,3" />
  <text x="670.0" y="286" fill="#94a3b8" font-size="10" text-anchor="middle">18.0ms</text>
  <text x="248" y="76" fill="#e2e8f0" font-size="12" text-anchor="end" font-weight="600">Direct In-Memory GET</text>
  <text x="248" y="90" fill="#94a3b8" font-size="10" text-anchor="end">O(1) RAM hash map lookup</text>
  <rect x="260" y="64" width="16.17222222222222" height="26" rx="5" fill="#ef4444" />
  <text x="284.1722222222222" y="82" fill="#f1f5f9" font-size="11" font-weight="bold">0.71ms</text>
  <text x="248" y="128" fill="#e2e8f0" font-size="12" text-anchor="end" font-weight="600">Cache-Aside Warm Hit</text>
  <text x="248" y="142" fill="#94a3b8" font-size="10" text-anchor="end">18.1x faster than cold miss</text>
  <rect x="260" y="116" width="17.994444444444447" height="26" rx="5" fill="#10b981" />
  <text x="285.99444444444447" y="134" fill="#f1f5f9" font-size="11" font-weight="bold">0.79ms</text>
  <text x="248" y="180" fill="#e2e8f0" font-size="12" text-anchor="end" font-weight="600">Uncached Query</text>
  <text x="248" y="194" fill="#94a3b8" font-size="10" text-anchor="end">Direct primary store disk query</text>
  <rect x="260" y="168" width="333.69444444444446" height="26" rx="5" fill="#f59e0b" />
  <text x="601.6944444444445" y="186" fill="#f1f5f9" font-size="11" font-weight="bold">14.65ms</text>
  <text x="248" y="232" fill="#e2e8f0" font-size="12" text-anchor="end" font-weight="600">Cache-Aside Cold Miss</text>
  <text x="248" y="246" fill="#94a3b8" font-size="10" text-anchor="end">Fetches DB + serializes + warms cache</text>
  <rect x="260" y="220" width="347.3611111111111" height="26" rx="5" fill="#8b5cf6" />
  <text x="615.3611111111111" y="238" fill="#f1f5f9" font-size="11" font-weight="bold">15.25ms</text>
</svg>